<?xml version="1.0" standalone="no"?>
<!DOCTYPE svg PUBLIC "-//W3C//DTD SVG 20010904//EN"
 "http://www.w3.org/TR/2001/REC-SVG-20010904/DTD/svg10.dtd">
<svg version="1.0" xmlns="http://www.w3.org/2000/svg"
 width="399.000000pt" height="364.000000pt" viewBox="0 0 399.000000 364.000000"
 preserveAspectRatio="xMidYMid meet">

<g transform="translate(0.000000,364.000000) scale(0.100000,-0.100000)"
fill="#000000" stroke="none">
<path d="M504 3273 c19 -302 89 -528 229 -741 130 -198 299 -347 522 -457 233
-116 453 -165 735 -165 684 0 1220 362 1414 955 45 135 75 359 67 493 l-1 22
-393 0 -394 0 -6 -92 c-8 -120 -28 -193 -79 -298 -88 -179 -267 -309 -478
-346 -266 -46 -531 48 -676 239 -89 118 -131 237 -141 400 l-6 97 -400 0 -400
0 7 -107z"/>
<path d="M1717 1605 c-313 -51 -589 -182 -793 -377 -250 -239 -381 -525 -419
-915 l-6 -63 400 0 400 0 6 58 c11 85 50 199 93 270 49 83 144 178 223 225
190 112 457 125 674 32 111 -48 238 -169 299 -284 36 -69 76 -196 76 -242 0
-63 -25 -59 406 -59 l394 0 0 49 c0 81 -38 277 -75 389 -118 353 -356 619
-697 782 -134 63 -210 89 -357 121 -128 28 -490 36 -624 14z"/>
</g>
</svg>
