<svg xmlns="http://www.w3.org/2000/svg" data-name="Layer 1" viewBox="0 0 128 160" x="0px" y="0px"><title>161 Web Icon Set 105 expanded</title><path d="M86.333,57.667a2.00011,2.00011,0,0,0,2-2V48a2.00025,2.00025,0,0,0-.58594-1.41406L83.2666,42.10547,84.91113,36.791a2.00037,2.00037,0,1,0-3.82227-1.18164l-2,6.4668a2.00088,2.00088,0,0,0,.49707,2.00488L84.333,48.82813V55.667A2.0001,2.0001,0,0,0,86.333,57.667Z"/><path d="M73.31934,67.56641a1.99973,1.99973,0,0,0-1.75293-2.21973l-11.333-1.333a2.00768,2.00768,0,0,0-1.43555.3877l-5.12891,3.85742L39.21777,66.67871A1.99021,1.99021,0,0,0,37.249,67.70117l-2.81891,5.10925a23.79738,23.79738,0,0,1,3.89532,1.219l1.782-3.22961,13.91309,1.52148a1.98737,1.98737,0,0,0,1.41992-.38965l5.12109-3.85156,10.53809,1.23926A2.00258,2.00258,0,0,0,73.31934,67.56641Z"/><path d="M107.34082,49.335a17.43349,17.43349,0,0,0-1.7627-5.11035l-3.55371-6.71582a17.8812,17.8812,0,0,0-2.7168-3.80371c-.35547-.38281-.7627-.7959-1.2041-1.24316-2.55957-2.59473-6.06445-6.14844-6.88477-11.52539-1.09766-7.19141-3.47949-8.27441-7.59375-9.56836a26.93332,26.93332,0,0,1-5.83594-2.43945c-8.69434-4.98242-26.915,12.0332-30.47949,15.49414a2.03022,2.03022,0,0,0-.17969.19922c-.04.05078-4.01855,5.04688-9.11035,7.02637C32.0166,33.98438,26.47168,44.97852,25.48047,47.03027c-1.27441,1.63379-7.626,10.18945-6.29785,16.69727a84.3931,84.3931,0,0,0,2.17059,8.28955c1.341-.07745,2.74323-.1189,4.16937-.11017-.00549-.01605-.01434-.0304-.01965-.04657a82.02166,82.02166,0,0,1-2.40039-8.93359c-.86523-4.2334,3.78516-11.24316,5.65039-13.58691a2.02242,2.02242,0,0,0,.24219-.38867C31.13184,44.44727,35.86523,36.7793,39.46973,35.377a23.33812,23.33812,0,0,0,5.81677-3.41272L54.333,34.80176V39a1.99833,1.99833,0,0,0,1.10059,1.78613l7.28711,3.667a1.9998,1.9998,0,1,0,1.79883-3.57227L58.333,37.76758V33.333a1.99982,1.99982,0,0,0-1.40137-1.9082l-8.21155-2.57556c.753-.78607,1.2641-1.39508,1.46448-1.64221,7.97754-7.7207,21.14355-17.373,25.61621-14.80762a30.761,30.761,0,0,0,6.624,2.78418c3.2041,1.00781,4.06445,1.27832,4.83887,6.35645,1.01758,6.65918,5.21484,10.91406,7.99219,13.73047.41113.416.791.80078,1.12207,1.1582a13.86257,13.86257,0,0,1,2.11133,2.95117l3.55371,6.71484a13.48959,13.48959,0,0,1,1.36035,3.93945c.82715,4.6582,1.0625,8.26465.62891,9.64746a1.9964,1.9964,0,0,0-.085.75879c.20294,2.52539-.9447,5.12219-2.86475,7.63861a23.1159,23.1159,0,0,1,4.71832.08716,13.85681,13.85681,0,0,0,2.15619-7.68085C108.47949,58.32324,108.27246,54.57617,107.34082,49.335Z"/><path d="M46.41168,83.62463c.38342,1.08337.81213,2.14636,1.23676,3.184.18671.45575.38464.93994.58313,1.446,1.44257.34888,2.91968.65253,4.43152.887a71.87954,71.87954,0,0,0,10.26868.84924,46.09476,46.09476,0,0,1,2.7868-4.03394,66.69858,66.69858,0,0,1-12.4422-.76843A52.2366,52.2366,0,0,1,46.41168,83.62463Z"/><path d="M11.62793,109.14941c.76563.418,1.55078.84473,2.34668,1.30078a11.92745,11.92745,0,0,0,6.041,1.55762c6.2207-.001,12.959-4.06543,18.65332-7.501.82324-.49707,1.625-.98145,2.40137-1.4375,7.18457-4.22949,4.99512-9.5752,2.877-14.74512a48.85847,48.85847,0,0,1-1.96582-5.41309C39.376,73.585,19.03711,76.085,14.75391,76.72168.64746,77.69141.10059,89.31836.10059,89.35547-.85059,102.35352,5.21094,105.65527,11.62793,109.14941ZM4.09375,89.582c.04-.83691.68652-8.19824,11.00586-8.874.05566-.00391.11035-.00977.165-.01855a67.18709,67.18709,0,0,1,9.63965-.71387c6.459,0,12.40039,1.0625,13.22559,4.01172a52.45064,52.45064,0,0,0,2.11621,5.85352c2.27441,5.55273,2.80273,7.42188-1.20508,9.78125-.78711.46387-1.60254.95508-2.43848,1.46-6.71191,4.0498-15.06543,9.09277-20.63965,5.89746-.82031-.4707-1.63086-.91211-2.42187-1.34277C7.38965,102.28711,3.32715,100.07422,4.09375,89.582Z"/><path d="M121.64844,79.873c-7.625-1.751-8.80371-2.707-11.71484-5.751-3.89258-4.07422-14.127-1.1543-16.13965-.52734a2.05836,2.05836,0,0,0-.19629.07227l-7.68359,3.30957C69.98438,80.53027,63.60254,97.082,62.958,98.86523c-2.53613,5.15527.4375,9.9209,3.585,14.96387l.25977.418c3.3877,5.43164,11.0498,4.44336,13.47656,3.97363a19.21765,19.21765,0,0,0,7.30762,1.77832,8.72863,8.72863,0,0,0,2.82422-.43164c6.88184-2.34863,18.15918-1.9209,21.4541-1.73145a4.04094,4.04094,0,0,0,3.07225-1.165L126.30859,105.376a1.99419,1.99419,0,0,0,.5498-1.01758C127.3252,102.08105,131.1377,82.05273,121.64844,79.873Zm1.40723,23.0957-10.9668,10.873c-3.47363-.19531-15.40138-.64062-22.96973,1.94043-2.34277.7998-6.44629-.81543-7.69531-1.44434a2.00431,2.00431,0,0,0-1.40137-.15332c-.0752.02051-7.43262,1.7832-9.8252-2.05371l-.26172-.41895c-3.1748-5.08887-4.89648-8.11523-3.35059-11.15625a2.26029,2.26029,0,0,0,.10645-.25c.05664-.16309,5.86035-16.36035,20.25879-19.46191a1.96772,1.96772,0,0,0,.37012-.11816L95.082,77.38281c4.06348-1.24707,10.41992-2.10645,11.96094-.49707,3.60254,3.76855,5.71484,5.0498,13.71,6.88574C124.70313,84.67871,124.4707,95.541,123.05566,102.96875Z"/><path d="M109.333,88h-6.457l-3.40625-3.68945a2,2,0,1,0-2.93945,2.71289l4,4.333A2.00023,2.00023,0,0,0,102,92h7.333a2,2,0,1,0,0-4Z"/><path d="M89.876,101.73926,81.44141,95.3418l2.7373-6.57227a1.9997,1.9997,0,0,0-3.69141-1.53906l-3.333,8a2.00056,2.00056,0,0,0,.63672,2.36328l3.18036,2.41248-3.64423,5.56506a1.99975,1.99975,0,1,0,3.3457,2.19141l3.49261-5.33356,3.29254,2.49762a2.00042,2.00042,0,1,0,2.418-3.1875Z"/><path d="M14.25977,88.35449,17,90.09766V93.667a1.99957,1.99957,0,0,0,1.45117,1.92285l4.667,1.333a1.99964,1.99964,0,1,0,1.09766-3.8457L21,92.1582V89a2.00055,2.00055,0,0,0-.92676-1.6875l-3.667-2.333a1.99988,1.99988,0,1,0-2.14648,3.375Z"/><path d="M33.47559,94.74219a2.00021,2.00021,0,1,0,3.71484-1.48437l-1.666-4.167a2.00021,2.00021,0,0,0-3.71484,1.48438Z"/><text x="0" y="143" fill="#000000" font-size="5px" font-weight="bold" font-family="'Helvetica Neue', Helvetica, Arial-Unicode, Arial, Sans-serif">Created by Creative Mahira</text><text x="0" y="148" fill="#000000" font-size="5px" font-weight="bold" font-family="'Helvetica Neue', Helvetica, Arial-Unicode, Arial, Sans-serif">from the Noun Project</text></svg>